<?xml version="1.0" encoding="UTF-8"?>
<svg id="Capa_1" data-name="Capa 1" xmlns="http://www.w3.org/2000/svg" viewBox="0 0 140.94 64.85">
  <defs>
    <style>
      .cls-1 {
        fill: #fff;
      }

      .cls-2 {
        fill: #00b0c0;
      }
    </style>
  </defs>
  <path class="cls-2" d="M6.86,13.33c-.45-.2-.82-.5-1.12-.89l1.03-1.27c.17.22.38.41.62.56.24.15.49.22.73.22.74,0,1.11-.53,1.11-1.58v-5.93h1.81v5.9c0,.34-.02.66-.07.94s-.11.56-.21.8-.21.47-.36.65-.32.35-.53.48-.44.23-.72.3c-.27.07-.58.1-.92.1-.47,0-.93-.1-1.38-.3Z"/>
  <path class="cls-2" d="M14.65,13.49c-.35-.1-.65-.25-.92-.44-.27-.19-.5-.42-.7-.69-.2-.26-.35-.56-.45-.89-.1-.33-.15-.68-.15-1.05,0-.46.08-.89.24-1.29.16-.4.38-.74.67-1.03.29-.29.64-.51,1.06-.67.42-.16.87-.24,1.36-.24s.93.08,1.34.24.76.38,1.06.66.52.62.69,1.03c.17.4.25.84.25,1.32,0,.63-.14,1.19-.43,1.68-.28.49-.68.87-1.18,1.14-.5.27-1.08.4-1.72.4-.39,0-.76-.05-1.11-.16ZM16.92,11.66c.31-.33.47-.74.47-1.24s-.15-.92-.46-1.25-.7-.48-1.16-.48-.88.16-1.18.49c-.3.33-.45.74-.45,1.24s.15.9.46,1.23c.31.33.7.5,1.17.5s.84-.16,1.16-.49Z"/>
  <path class="cls-2" d="M24.16,7.19v1.84c-.17-.01-.31-.02-.44-.02-.5,0-.89.15-1.17.46-.28.3-.42.7-.42,1.18v2.9h-1.68v-6.26h1.68v.92h.02c.24-.33.52-.58.84-.76.33-.18.67-.27,1.04-.27.06,0,.11,0,.13,0Z"/>
  <path class="cls-2" d="M29.88,7.33c.27.1.51.25.71.45.21.2.36.48.47.83.11.35.16.75.16,1.23v3.72h-1.68v-3.3c0-.58-.1-.98-.29-1.21-.2-.23-.5-.35-.91-.35-.43,0-.78.15-1.04.44-.26.3-.38.72-.38,1.26v3.15h-1.68v-6.26h1.68v.81h.02c.25-.3.56-.52.9-.68.35-.16.72-.23,1.1-.23.35,0,.65.05.92.15Z"/>
  <path class="cls-2" d="M38.98,7.29v6.26h-1.6v-.76h-.03c-.45.58-1.07.86-1.87.86-.43,0-.83-.08-1.2-.23s-.69-.37-.95-.65c-.26-.28-.47-.62-.62-1.02-.15-.4-.23-.84-.23-1.32s.08-.9.23-1.31.36-.75.62-1.03c.26-.28.57-.51.94-.67.37-.16.75-.24,1.17-.24.76,0,1.38.27,1.85.81h.02v-.71h1.68ZM36.92,11.67c.3-.32.46-.73.46-1.23s-.15-.92-.45-1.25c-.3-.33-.67-.5-1.13-.5s-.84.16-1.15.48-.46.74-.46,1.27.15.92.45,1.23c.3.32.68.48,1.15.48.45,0,.82-.16,1.13-.48Z"/>
  <path class="cls-2" d="M46.83,4.11v9.43h-1.59v-.76h-.04c-.45.58-1.09.86-1.91.86-.25,0-.48-.03-.71-.08-.23-.05-.44-.12-.64-.23-.2-.1-.38-.22-.55-.36s-.32-.3-.46-.48c-.13-.18-.25-.38-.34-.59s-.17-.45-.22-.7c-.05-.25-.08-.51-.08-.79,0-.47.08-.9.23-1.31s.36-.75.62-1.03c.26-.28.57-.51.94-.67.37-.16.75-.24,1.17-.24.79,0,1.42.27,1.89.81h.03v-3.88h1.68ZM44.42,11.94c.25-.14.45-.34.6-.6.15-.26.22-.56.22-.89,0-.5-.16-.92-.47-1.25s-.7-.5-1.18-.5-.84.16-1.15.48-.46.74-.46,1.27.15.92.45,1.23c.3.32.68.48,1.15.48.3,0,.58-.07.83-.21Z"/>
  <path class="cls-2" d="M54.67,7.29v6.26h-1.6v-.76h-.03c-.45.58-1.07.86-1.87.86-.43,0-.83-.08-1.2-.23s-.69-.37-.95-.65-.47-.62-.62-1.02c-.15-.4-.22-.84-.22-1.32s.08-.9.22-1.31c.15-.4.36-.75.62-1.03.26-.28.57-.51.94-.67.37-.16.75-.24,1.17-.24.76,0,1.38.27,1.85.81h.03v-.71h1.68ZM52.6,11.67c.3-.32.46-.73.46-1.23s-.15-.92-.45-1.25-.67-.5-1.13-.5-.84.16-1.15.48-.46.74-.46,1.27.15.92.45,1.23c.3.32.68.48,1.15.48.45,0,.82-.16,1.13-.48Z"/>
  <path class="cls-2" d="M55.81,12.73l.81-1.16c.52.49,1.1.73,1.73.73.24,0,.43-.05.56-.14s.21-.22.21-.38c0-.1-.04-.18-.12-.25-.08-.07-.2-.14-.35-.2-.15-.06-.37-.14-.67-.24-.19-.06-.36-.13-.5-.19-.15-.06-.3-.14-.45-.22-.15-.09-.29-.18-.4-.29-.11-.1-.21-.22-.3-.35-.09-.13-.16-.28-.2-.44s-.07-.35-.07-.54c0-.37.1-.7.3-.99.2-.29.47-.5.81-.66s.72-.23,1.15-.23.84.06,1.21.19c.37.12.73.33,1.08.6l-.81,1.23c-.23-.22-.48-.39-.74-.5s-.51-.17-.75-.17c-.16,0-.3.04-.43.12-.12.08-.19.2-.19.35,0,.12.07.24.22.34.15.1.39.21.72.34.69.25,1.16.46,1.39.61.41.25.65.58.73,1,.03.12.04.26.04.42,0,.58-.21,1.05-.62,1.41-.42.36-1.02.54-1.8.54-.99,0-1.84-.31-2.53-.92Z"/>
  <path class="cls-2" d="M6.44,19.83h1.8v7.49h4.05v1.61h-5.85v-9.1Z"/>
  <path class="cls-2" d="M19.68,22.68v6.26h-1.6v-.76h-.03c-.45.58-1.07.86-1.87.86-.43,0-.83-.08-1.2-.23s-.69-.37-.95-.65-.47-.62-.62-1.02c-.15-.4-.22-.84-.22-1.32s.08-.9.22-1.31c.15-.4.36-.75.62-1.03.26-.28.57-.51.94-.67.37-.16.75-.24,1.17-.24.76,0,1.38.27,1.85.81h.03v-.71h1.68ZM17.62,27.06c.3-.32.46-.73.46-1.23s-.15-.92-.45-1.25-.67-.5-1.13-.5-.84.16-1.15.48-.46.74-.46,1.27.15.92.45,1.23c.3.32.68.48,1.15.48.45,0,.82-.16,1.13-.48Z"/>
  <path class="cls-2" d="M21.97,28.51c-.32-.35-.48-.87-.48-1.55v-2.89h-.74v-1.39h.74v-2.05l1.68-.18v2.23h1.7v1.39h-1.7v2.66c0,.28.04.48.13.61.08.13.23.19.42.19.24,0,.5-.07.79-.22l.43,1.34c-.24.13-.48.23-.72.29-.24.07-.55.1-.94.1-.55,0-.99-.18-1.31-.53Z"/>
  <path class="cls-2" d="M26.51,21.66c-.16-.09-.29-.22-.38-.37s-.14-.33-.14-.52c0-.28.1-.52.3-.72s.45-.3.74-.3.53.1.73.3c.21.2.31.44.31.72s-.1.53-.31.73c-.2.2-.45.3-.73.3-.19,0-.36-.05-.52-.14ZM26.19,22.68h1.68v6.26h-1.68v-6.26Z"/>
  <path class="cls-2" d="M34.28,22.72c.27.1.51.25.71.45.21.2.36.48.47.83.11.35.16.75.16,1.23v3.72h-1.68v-3.3c0-.58-.1-.98-.29-1.21s-.5-.35-.91-.35c-.43,0-.78.15-1.04.44-.26.3-.38.72-.38,1.26v3.15h-1.68v-6.26h1.68v.81h.02c.25-.3.56-.52.9-.68.35-.16.72-.23,1.1-.23.35,0,.65.05.92.15Z"/>
  <path class="cls-2" d="M39.12,28.88c-.35-.1-.65-.25-.92-.44-.27-.19-.5-.42-.7-.69-.2-.26-.35-.56-.45-.89-.1-.33-.15-.68-.15-1.05,0-.46.08-.89.24-1.29.16-.4.38-.74.67-1.03.29-.29.64-.51,1.06-.67.42-.16.87-.24,1.36-.24s.93.08,1.34.24.76.38,1.06.66.52.62.69,1.03c.17.4.25.84.25,1.32,0,.63-.14,1.19-.43,1.68-.28.49-.68.87-1.18,1.14-.5.27-1.08.4-1.72.4-.39,0-.76-.05-1.11-.16ZM41.38,27.05c.31-.33.47-.74.47-1.24s-.15-.92-.46-1.25-.7-.48-1.16-.48-.88.16-1.18.49c-.3.33-.45.74-.45,1.24s.15.9.46,1.23c.31.33.7.5,1.17.5s.84-.16,1.16-.49Z"/>
  <path class="cls-2" d="M51.05,22.68v6.26h-1.6v-.76h-.03c-.45.58-1.07.86-1.87.86-.43,0-.83-.08-1.2-.23s-.69-.37-.95-.65-.47-.62-.62-1.02c-.15-.4-.22-.84-.22-1.32s.08-.9.22-1.31c.15-.4.36-.75.62-1.03.26-.28.57-.51.94-.67.37-.16.75-.24,1.17-.24.76,0,1.38.27,1.85.81h.03v-.71h1.68ZM48.98,27.06c.3-.32.46-.73.46-1.23s-.15-.92-.45-1.25-.67-.5-1.13-.5-.84.16-1.15.48-.46.74-.46,1.27.15.92.45,1.23c.3.32.68.48,1.15.48.45,0,.82-.16,1.13-.48Z"/>
  <path class="cls-2" d="M61.95,23.24c.39.45.58,1.13.58,2.06v3.64h-1.68v-3.23c0-1.08-.36-1.63-1.09-1.63-.24,0-.45.06-.64.19-.19.13-.34.33-.46.59-.12.27-.17.58-.17.94v3.13h-1.68v-3.23c0-1.08-.37-1.63-1.11-1.63-.25,0-.48.06-.68.19s-.35.33-.47.59c-.12.27-.17.58-.17.94v3.13h-1.68v-6.26h1.68v.83h.02c.25-.3.53-.53.86-.69.33-.16.66-.24,1.01-.24.87,0,1.49.33,1.86,1.01h.02c.25-.33.57-.57.94-.75.37-.17.79-.26,1.24-.26.7,0,1.24.22,1.63.67Z"/>
  <path class="cls-2" d="M69.93,26.35h-4.39c.1.37.29.66.57.88s.62.32,1.02.33c.6,0,1.1-.23,1.5-.71l1.09,1.01c-.28.36-.65.65-1.11.86s-.99.32-1.59.32-1.16-.13-1.65-.4-.87-.65-1.15-1.14c-.28-.5-.42-1.06-.42-1.7,0-.47.08-.9.24-1.3.16-.4.37-.75.65-1.03s.6-.5.99-.66.79-.24,1.23-.24c.6,0,1.14.14,1.61.41.47.27.83.65,1.08,1.13.25.48.38,1.03.38,1.64,0,.3-.01.5-.04.6ZM66.07,24.33c-.25.19-.42.46-.52.81h2.76c-.09-.34-.25-.61-.48-.8-.23-.19-.52-.29-.88-.29s-.64.09-.89.28Z"/>
  <path class="cls-2" d="M75.04,22.58v1.84c-.17-.01-.32-.02-.44-.02-.5,0-.89.15-1.17.46s-.42.7-.42,1.18v2.9h-1.68v-6.26h1.68v.92h.02c.24-.33.52-.58.84-.76.33-.18.67-.27,1.04-.27.06,0,.11,0,.13,0Z"/>
  <path class="cls-2" d="M76.52,21.66c-.16-.09-.29-.22-.38-.37s-.14-.33-.14-.52c0-.28.1-.52.3-.72.2-.2.45-.3.73-.3s.53.1.73.3.31.44.31.72-.1.53-.31.73-.45.3-.73.3c-.19,0-.36-.05-.52-.14ZM76.2,22.68h1.68v6.26h-1.68v-6.26Z"/>
  <path class="cls-2" d="M80.88,28.64c-.49-.27-.87-.65-1.15-1.14s-.42-1.05-.42-1.68.14-1.2.42-1.69c.28-.49.67-.87,1.17-1.14.5-.27,1.07-.41,1.71-.41.51,0,1.01.1,1.48.31.47.21.87.5,1.18.89l-1.13.98c-.38-.45-.87-.67-1.46-.67-.25,0-.47.04-.68.13-.21.08-.38.2-.53.35s-.25.33-.33.54c-.08.21-.12.44-.12.69,0,.51.16.93.47,1.25.31.32.71.48,1.21.48.31,0,.59-.06.83-.18s.45-.27.62-.45l1.15,1.01c-.29.33-.67.6-1.15.81-.48.21-1.02.31-1.62.31s-1.16-.13-1.65-.4Z"/>
  <path class="cls-2" d="M92.61,22.68v6.26h-1.6v-.76h-.03c-.45.58-1.07.86-1.87.86-.43,0-.83-.08-1.2-.23s-.69-.37-.95-.65-.47-.62-.62-1.02c-.15-.4-.22-.84-.22-1.32s.08-.9.22-1.31c.15-.4.36-.75.62-1.03.26-.28.57-.51.94-.67.37-.16.75-.24,1.17-.24.76,0,1.38.27,1.85.81h.03v-.71h1.68ZM90.55,27.06c.3-.32.46-.73.46-1.23s-.15-.92-.45-1.25-.67-.5-1.13-.5-.84.16-1.15.48-.46.74-.46,1.27.15.92.45,1.23c.3.32.68.48,1.15.48.45,0,.82-.16,1.13-.48Z"/>
  <path class="cls-2" d="M98.89,22.72c.27.1.51.25.71.45.21.2.36.48.47.83.11.35.16.75.16,1.23v3.72h-1.68v-3.3c0-.58-.1-.98-.29-1.21s-.5-.35-.91-.35c-.43,0-.78.15-1.04.44-.26.3-.38.72-.38,1.26v3.15h-1.68v-6.26h1.68v.81h.02c.25-.3.56-.52.9-.68.35-.16.72-.23,1.1-.23.35,0,.65.05.92.15Z"/>
  <path class="cls-2" d="M107.99,22.68v6.26h-1.6v-.76h-.03c-.45.58-1.07.86-1.87.86-.43,0-.83-.08-1.2-.23s-.69-.37-.95-.65c-.26-.28-.47-.62-.62-1.02-.15-.4-.23-.84-.23-1.32s.08-.9.23-1.31.36-.75.62-1.03c.26-.28.57-.51.94-.67.37-.16.75-.24,1.17-.24.76,0,1.38.27,1.85.81h.02v-.71h1.68ZM105.92,27.06c.3-.32.46-.73.46-1.23s-.15-.92-.45-1.25c-.3-.33-.67-.5-1.13-.5s-.84.16-1.15.48-.46.74-.46,1.27.15.92.45,1.23c.3.32.68.48,1.15.48.45,0,.82-.16,1.13-.48Z"/>
  <path class="cls-2" d="M109.13,28.12l.81-1.16c.52.49,1.1.73,1.73.73.24,0,.42-.05.56-.14s.21-.22.21-.38c0-.1-.04-.18-.12-.25-.08-.07-.2-.14-.35-.2-.15-.06-.37-.14-.67-.24-.19-.06-.36-.13-.5-.19-.15-.06-.3-.14-.45-.22-.15-.09-.29-.18-.4-.29-.11-.1-.21-.22-.3-.35-.09-.13-.16-.28-.2-.44s-.07-.35-.07-.54c0-.37.1-.7.3-.99.2-.29.47-.5.81-.66s.72-.23,1.15-.23.84.06,1.21.19.73.33,1.08.6l-.81,1.23c-.23-.22-.48-.39-.74-.5s-.51-.17-.75-.17c-.16,0-.3.04-.42.12-.12.08-.19.2-.19.35,0,.12.07.24.22.34.15.1.39.21.72.34.69.25,1.16.46,1.39.61.4.25.65.58.73,1,.03.12.04.26.04.42,0,.58-.21,1.05-.62,1.41-.42.36-1.02.54-1.8.54-.99,0-1.84-.31-2.53-.92Z"/>
  <path class="cls-2" d="M12.48,34.89v9.43h-1.59v-.76h-.04c-.45.58-1.09.86-1.91.86-.25,0-.48-.02-.71-.08-.23-.05-.44-.12-.64-.22-.2-.1-.38-.22-.55-.36-.17-.14-.32-.3-.46-.48-.13-.18-.25-.38-.34-.59-.09-.21-.17-.45-.22-.7-.05-.25-.08-.51-.08-.79,0-.47.08-.9.23-1.31.15-.4.36-.75.62-1.03.26-.28.57-.51.94-.67s.75-.24,1.17-.24c.79,0,1.42.27,1.89.81h.03v-3.88h1.68ZM10.07,42.72c.25-.14.45-.34.6-.6.15-.26.22-.56.22-.89,0-.5-.16-.92-.47-1.25-.31-.33-.7-.5-1.18-.5s-.84.16-1.15.48-.46.75-.46,1.27.15.92.45,1.23c.3.32.68.48,1.15.48.3,0,.58-.07.83-.21Z"/>
  <path class="cls-2" d="M20.14,41.74h-4.39c.1.37.29.66.57.88.28.21.62.32,1.02.33.6,0,1.1-.23,1.5-.71l1.09,1.01c-.28.36-.66.65-1.11.86-.46.21-.99.32-1.59.32s-1.16-.13-1.64-.4c-.49-.26-.87-.65-1.15-1.14-.28-.5-.42-1.06-.42-1.7,0-.47.08-.9.24-1.3.16-.4.37-.74.65-1.03.27-.28.6-.5.99-.66.38-.16.79-.24,1.23-.24.6,0,1.14.14,1.61.41.47.27.83.65,1.08,1.13.25.48.38,1.03.38,1.64,0,.3-.01.5-.04.6ZM16.27,39.72c-.25.19-.42.46-.52.81h2.76c-.09-.34-.25-.61-.48-.8-.23-.19-.52-.29-.88-.29s-.64.09-.89.28Z"/>
  <path class="cls-1" d="M27.27,36.83h-2.51v-1.61h6.83v1.61h-2.52v7.49h-1.79v-7.49Z"/>
  <path class="cls-1" d="M37.65,41.74h-4.39c.1.37.29.66.57.88.28.21.62.32,1.02.33.6,0,1.1-.23,1.5-.71l1.09,1.01c-.28.36-.66.65-1.11.86-.46.21-.99.32-1.59.32s-1.16-.13-1.64-.4c-.49-.26-.87-.65-1.15-1.14-.28-.5-.42-1.06-.42-1.7,0-.47.08-.9.24-1.3.16-.4.37-.74.65-1.03.27-.28.6-.5.99-.66.38-.16.79-.24,1.23-.24.6,0,1.14.14,1.61.41.47.27.83.65,1.08,1.13.25.48.38,1.03.38,1.64,0,.3-.01.5-.04.6ZM33.78,39.72c-.25.19-.42.46-.52.81h2.76c-.09-.34-.25-.61-.48-.8-.23-.19-.52-.29-.88-.29s-.64.09-.89.28Z"/>
  <path class="cls-1" d="M41.08,44.27c-.35-.1-.65-.25-.92-.44-.27-.19-.5-.42-.7-.68-.2-.27-.34-.56-.45-.89-.1-.33-.15-.68-.15-1.05,0-.46.08-.9.24-1.3.16-.4.38-.74.67-1.03.29-.29.64-.51,1.06-.67s.87-.24,1.36-.24.93.08,1.34.24c.41.16.77.38,1.06.66.29.28.52.62.68,1.03.17.4.25.84.25,1.32,0,.63-.14,1.19-.42,1.68-.28.49-.68.87-1.18,1.14-.5.27-1.08.4-1.72.4-.39,0-.76-.05-1.11-.16ZM43.34,42.44c.31-.33.47-.74.47-1.24s-.15-.93-.46-1.25c-.31-.32-.7-.48-1.16-.48s-.88.16-1.18.49c-.3.33-.45.74-.45,1.24s.15.9.46,1.23c.31.33.7.5,1.17.5s.84-.16,1.16-.49Z"/>
  <path class="cls-1" d="M50.76,37.97v1.84c-.17-.01-.32-.02-.44-.02-.5,0-.89.15-1.17.46-.28.3-.42.7-.42,1.18v2.9h-1.68v-6.26h1.68v.92h.02c.24-.33.52-.58.84-.76.33-.18.67-.27,1.04-.27.06,0,.11,0,.13,0Z"/>
  <path class="cls-1" d="M52.09,38.07h1.68v6.26h-1.68v-6.26ZM53.62,35.31h1.76s-1.59,1.88-1.59,1.88h-1.62l1.45-1.88Z"/>
  <path class="cls-1" d="M61.86,38.07v6.26h-1.6v-.76h-.03c-.45.58-1.07.86-1.87.86-.43,0-.83-.08-1.2-.23s-.69-.37-.95-.65c-.26-.28-.47-.62-.62-1.02s-.23-.84-.23-1.32.08-.9.23-1.31c.15-.4.36-.75.62-1.03.26-.28.57-.51.94-.67s.75-.24,1.17-.24c.76,0,1.38.27,1.85.81h.02v-.71h1.68ZM59.79,42.45c.3-.32.46-.73.46-1.23s-.15-.92-.45-1.25c-.3-.33-.67-.5-1.13-.5s-.84.16-1.15.48-.46.75-.46,1.27.15.92.45,1.23c.3.32.68.48,1.15.48.45,0,.82-.16,1.13-.48Z"/>
  <path class="cls-1" d="M67.36,35.22h5.82v1.61h-4.04v2.18h3.24v1.59h-3.24v2.11h4.31v1.61h-6.09v-9.1Z"/>
  <path class="cls-1" d="M76.18,44.02c-.49-.27-.87-.65-1.15-1.14s-.42-1.05-.42-1.68.14-1.2.42-1.69.67-.87,1.17-1.14c.5-.27,1.07-.41,1.71-.41.51,0,1.01.1,1.48.31.48.21.87.5,1.18.89l-1.13.98c-.38-.45-.87-.67-1.46-.67-.25,0-.47.04-.68.13-.21.09-.38.2-.53.35-.14.15-.26.33-.33.54-.08.21-.12.44-.12.69,0,.51.16.93.47,1.25.31.32.71.48,1.21.48.31,0,.59-.06.83-.18.25-.12.45-.27.62-.45l1.15,1.01c-.29.33-.67.6-1.15.81-.48.21-1.02.31-1.62.31s-1.16-.13-1.65-.4Z"/>
  <path class="cls-1" d="M83.81,44.27c-.35-.1-.65-.25-.92-.44-.27-.19-.5-.42-.7-.68-.2-.27-.35-.56-.45-.89-.1-.33-.15-.68-.15-1.05,0-.46.08-.9.24-1.3.16-.4.38-.74.67-1.03.29-.29.64-.51,1.06-.67s.87-.24,1.36-.24.93.08,1.34.24c.41.16.76.38,1.06.66.29.28.52.62.69,1.03s.25.84.25,1.32c0,.63-.14,1.19-.43,1.68-.28.49-.68.87-1.18,1.14-.5.27-1.08.4-1.72.4-.39,0-.76-.05-1.11-.16ZM86.08,42.44c.31-.33.47-.74.47-1.24s-.15-.93-.46-1.25c-.31-.32-.7-.48-1.16-.48s-.88.16-1.18.49c-.3.33-.45.74-.45,1.24s.15.9.46,1.23c.31.33.7.5,1.17.5s.84-.16,1.16-.49Z"/>
  <path class="cls-1" d="M94.4,38.11c.27.1.51.25.71.45.21.2.36.48.47.83.11.35.16.75.16,1.23v3.72h-1.68v-3.3c0-.58-.1-.98-.29-1.21s-.5-.35-.91-.35c-.43,0-.78.15-1.04.44s-.38.72-.38,1.26v3.15h-1.68v-6.26h1.68v.81h.02c.25-.3.56-.52.9-.68.35-.16.72-.23,1.1-.23.35,0,.65.05.92.15Z"/>
  <path class="cls-1" d="M99.41,44.27c-.35-.1-.65-.25-.92-.44-.27-.19-.5-.42-.7-.68-.2-.27-.34-.56-.45-.89-.1-.33-.15-.68-.15-1.05,0-.46.08-.9.24-1.3.16-.4.38-.74.67-1.03.29-.29.64-.51,1.06-.67s.87-.24,1.36-.24.93.08,1.34.24c.41.16.77.38,1.06.66.29.28.52.62.68,1.03.17.4.25.84.25,1.32,0,.63-.14,1.19-.42,1.68-.28.49-.68.87-1.18,1.14-.5.27-1.08.4-1.72.4-.39,0-.76-.05-1.11-.16ZM101.67,42.44c.31-.33.47-.74.47-1.24s-.15-.93-.46-1.25c-.31-.32-.7-.48-1.16-.48-.14,0-.27.01-.4.04-.13.03-.24.07-.35.13-.11.06-.21.12-.3.2s-.17.17-.24.26c-.07.1-.13.21-.18.32-.05.11-.09.24-.12.37-.03.13-.04.27-.04.41,0,.49.15.9.46,1.23.31.33.7.5,1.17.5s.84-.16,1.16-.49ZM101.14,35.31h1.76s-1.59,1.88-1.59,1.88h-1.62l1.45-1.88Z"/>
  <path class="cls-1" d="M114.61,38.63c.39.45.58,1.13.58,2.06v3.64h-1.68v-3.23c0-1.08-.37-1.63-1.09-1.63-.24,0-.45.06-.64.19-.19.13-.34.33-.46.59-.11.26-.17.58-.17.94v3.13h-1.68v-3.23c0-1.08-.37-1.63-1.11-1.63-.25,0-.48.06-.68.19-.2.13-.35.33-.47.59-.12.26-.18.58-.18.94v3.13h-1.68v-6.26h1.68v.83h.02c.25-.3.53-.53.86-.69.33-.16.66-.24,1.01-.24.87,0,1.49.34,1.86,1.01h.02c.25-.33.57-.58.94-.75s.79-.26,1.24-.26c.7,0,1.24.22,1.63.67Z"/>
  <path class="cls-1" d="M117.37,37.05c-.16-.09-.29-.22-.38-.37-.09-.16-.14-.33-.14-.52,0-.28.1-.52.3-.72.2-.2.45-.3.73-.3s.53.1.73.3.31.44.31.72-.1.53-.31.73-.45.3-.73.3c-.19,0-.36-.05-.52-.14ZM117.05,38.07h1.68v6.26h-1.68v-6.26Z"/>
  <path class="cls-1" d="M121.89,44.02c-.49-.27-.87-.65-1.15-1.14s-.42-1.05-.42-1.68.14-1.2.42-1.69.67-.87,1.17-1.14c.5-.27,1.07-.41,1.71-.41.51,0,1.01.1,1.48.31.48.21.87.5,1.18.89l-1.13.98c-.38-.45-.87-.67-1.46-.67-.25,0-.47.04-.68.13-.21.09-.38.2-.53.35-.14.15-.25.33-.33.54-.08.21-.12.44-.12.69,0,.51.16.93.47,1.25s.71.48,1.21.48c.31,0,.59-.06.83-.18.25-.12.45-.27.62-.45l1.15,1.01c-.29.33-.67.6-1.15.81-.48.21-1.02.31-1.62.31s-1.16-.13-1.65-.4Z"/>
  <path class="cls-1" d="M133.79,38.07v6.26h-1.6v-.76h-.03c-.45.58-1.07.86-1.87.86-.43,0-.83-.08-1.2-.23s-.69-.37-.95-.65-.47-.62-.62-1.02c-.15-.4-.23-.84-.23-1.32s.08-.9.23-1.31c.15-.4.36-.75.62-1.03.26-.28.57-.51.94-.67.36-.16.75-.24,1.17-.24.76,0,1.38.27,1.85.81h.03v-.71h1.68ZM131.73,42.45c.3-.32.46-.73.46-1.23s-.15-.92-.45-1.25c-.3-.33-.67-.5-1.13-.5s-.84.16-1.15.48c-.31.32-.46.75-.46,1.27s.15.92.45,1.23c.3.32.68.48,1.15.48.45,0,.82-.16,1.13-.48Z"/>
  <path class="cls-1" d="M7.41,59.46c-.57-.24-1.09-.6-1.55-1.08l1.08-1.33c.17.19.35.36.54.51.19.15.39.26.58.36.19.09.39.16.58.21.19.05.38.07.56.07.28,0,.52-.04.72-.13.2-.08.35-.2.44-.34.1-.14.14-.31.14-.5,0-.13-.02-.25-.06-.36s-.1-.2-.17-.28-.18-.16-.32-.23-.28-.15-.43-.21-.35-.13-.59-.22c-.22-.08-.42-.15-.59-.22s-.36-.15-.56-.25c-.2-.1-.37-.21-.52-.31-.15-.1-.29-.23-.43-.37-.14-.14-.26-.3-.35-.46-.09-.16-.16-.35-.22-.56-.06-.21-.08-.43-.08-.67,0-.48.13-.92.39-1.31s.61-.71,1.06-.94.94-.34,1.48-.35c1.1-.01,2.12.37,3.07,1.15l-1.04,1.36c-.73-.6-1.39-.89-1.98-.89-.32,0-.58.08-.79.24-.2.16-.31.39-.31.67,0,.11.02.21.06.31.04.09.1.17.17.25.07.07.18.15.32.23s.28.15.42.21.33.14.57.23c.76.3,1.26.51,1.51.64.57.31.94.69,1.13,1.14.12.28.17.61.17.99s-.06.74-.19,1.05c-.13.32-.3.58-.51.79-.21.21-.46.39-.74.54-.28.15-.57.25-.87.32s-.6.1-.91.1c-.6,0-1.19-.12-1.76-.36Z"/>
  <path class="cls-1" d="M20.08,53.46v6.26h-1.6v-.76h-.03c-.45.58-1.07.86-1.87.86-.43,0-.83-.08-1.2-.23s-.69-.37-.95-.65-.47-.62-.62-1.02c-.15-.4-.22-.84-.22-1.32s.08-.9.22-1.31c.15-.4.36-.75.62-1.03.26-.28.57-.51.94-.67.37-.16.75-.24,1.17-.24.76,0,1.38.27,1.85.81h.03v-.71h1.68ZM18.02,57.84c.3-.32.46-.73.46-1.23s-.15-.92-.45-1.25c-.3-.33-.67-.5-1.13-.5s-.84.16-1.15.48-.46.75-.46,1.27.15.92.45,1.23c.3.32.68.48,1.15.48.45,0,.82-.16,1.13-.48Z"/>
  <path class="cls-1" d="M26.53,53.5c.27.1.51.25.71.45.21.2.36.48.47.83.11.35.16.75.16,1.23v3.72h-1.68v-3.3c0-.58-.1-.98-.29-1.21-.2-.23-.5-.35-.91-.35-.43,0-.78.15-1.04.44-.26.3-.38.72-.38,1.26v3.15h-1.68v-6.26h1.68v.81h.02c.25-.3.56-.52.9-.68.35-.16.72-.23,1.1-.23.35,0,.65.05.92.15Z"/>
  <path class="cls-1" d="M33.35,50.61h1.8v7.5h4.05v1.61h-5.85v-9.1Z"/>
  <path class="cls-1" d="M46.37,53.46v6.26h-1.68v-.76h-.02c-.24.28-.52.5-.84.65-.32.15-.66.22-1.02.22s-.66-.05-.93-.14c-.27-.09-.51-.24-.72-.44-.21-.2-.37-.47-.48-.81-.11-.34-.17-.74-.17-1.21v-3.77h1.68v3.33c0,.56.09.96.26,1.19.17.23.46.34.86.34s.72-.16.99-.48c.27-.32.4-.76.4-1.34v-3.03h1.68Z"/>
  <path class="cls-1" d="M48.58,52.44c-.16-.09-.29-.22-.38-.37-.09-.16-.14-.33-.14-.52,0-.28.1-.52.3-.72.2-.2.45-.3.73-.3s.53.1.73.3.31.44.31.72-.1.53-.31.73-.45.3-.73.3c-.19,0-.36-.05-.52-.14ZM48.27,53.46h1.68v6.26h-1.68v-6.26Z"/>
  <path class="cls-1" d="M51.38,58.9l.81-1.16c.52.49,1.1.73,1.73.73.24,0,.42-.05.56-.14.14-.1.21-.22.21-.38,0-.1-.04-.18-.12-.25-.08-.07-.2-.14-.35-.2-.15-.06-.37-.14-.67-.24-.19-.06-.36-.12-.5-.19-.15-.06-.3-.14-.45-.22-.15-.08-.29-.18-.4-.28-.11-.1-.21-.22-.3-.35-.09-.13-.16-.28-.2-.44s-.07-.35-.07-.54c0-.37.1-.7.3-.99s.47-.51.81-.66.72-.23,1.15-.23.84.06,1.21.19.73.33,1.08.6l-.81,1.23c-.23-.22-.48-.39-.74-.5-.26-.11-.51-.17-.75-.17-.16,0-.3.04-.42.12-.12.08-.19.2-.19.35,0,.12.07.24.22.34.15.1.39.21.72.34.69.25,1.16.46,1.39.61.4.25.65.58.73,1,.03.12.04.26.04.42,0,.58-.21,1.05-.62,1.41-.42.36-1.02.54-1.8.54-.99,0-1.84-.31-2.53-.92Z"/>
  <path class="cls-1" d="M61.12,54.97h3.88v1.57h-3.88v-1.57Z"/>
  <path class="cls-1" d="M75.58,58.13v1.58h-5.75l-.02-1.14,2.74-2.89c.4-.42.7-.79.89-1.1.19-.31.29-.63.29-.96,0-.22-.05-.43-.15-.61-.1-.18-.24-.33-.42-.43-.18-.1-.38-.16-.6-.16-.64,0-1.15.32-1.53.95l-1.25-.89c.28-.5.66-.91,1.15-1.21.48-.3,1.07-.45,1.77-.45.37,0,.73.06,1.06.18.34.12.63.29.89.51s.46.5.62.83.23.7.23,1.09c0,.52-.11,1-.32,1.44-.21.44-.59.95-1.14,1.52l-1.66,1.71v.03h3.21Z"/>
  <path class="cls-1" d="M78.96,59.51c-.42-.2-.78-.5-1.08-.88-.3-.38-.53-.85-.7-1.42s-.25-1.2-.25-1.9.08-1.28.24-1.84c.16-.56.38-1.03.68-1.43.29-.39.65-.7,1.08-.92s.91-.33,1.43-.33.97.1,1.4.31c.42.2.79.5,1.08.88.3.38.53.85.7,1.42s.25,1.2.25,1.9c0,.9-.14,1.68-.41,2.36-.27.68-.67,1.2-1.19,1.58-.52.38-1.13.57-1.83.57-.51,0-.97-.1-1.39-.31ZM81.57,57.45c.29-.5.43-1.21.43-2.13s-.14-1.6-.43-2.12c-.29-.51-.69-.77-1.21-.77s-.92.25-1.21.75c-.29.5-.44,1.21-.44,2.13,0,.59.07,1.1.19,1.53s.32.77.57,1,.55.35.89.35c.52,0,.92-.25,1.21-.75Z"/>
  <path class="cls-1" d="M90.82,58.13v1.58h-5.75l-.02-1.14,2.74-2.89c.4-.42.7-.79.89-1.1.19-.31.29-.63.29-.96,0-.22-.05-.43-.15-.61-.1-.18-.24-.33-.42-.43-.18-.1-.38-.16-.6-.16-.64,0-1.15.32-1.53.95l-1.25-.89c.28-.5.66-.91,1.15-1.21.48-.3,1.07-.45,1.77-.45.37,0,.73.06,1.06.18.34.12.63.29.89.51s.46.5.62.83.23.7.23,1.09c0,.52-.11,1-.32,1.44-.21.44-.59.95-1.14,1.52l-1.66,1.71v.03h3.21Z"/>
  <path class="cls-1" d="M96.77,54.27c.33.13.61.31.86.54s.44.53.58.89c.14.36.21.77.21,1.21,0,.56-.14,1.07-.42,1.51-.28.44-.66.79-1.14,1.03-.48.24-1.02.37-1.62.37-.45,0-.86-.08-1.25-.26-.39-.17-.72-.41-1-.71-.28-.3-.5-.67-.66-1.12-.16-.44-.24-.92-.24-1.44,0-.7.11-1.38.34-2.02.23-.64.54-1.21.94-1.7.41-.5.9-.91,1.47-1.26.58-.34,1.21-.58,1.89-.7l.51,1.4c-.81.23-1.47.54-2,.94s-.91.9-1.15,1.52h.02c.48-.26,1.02-.39,1.61-.39.37,0,.72.06,1.04.19ZM96.32,57.85c.27-.27.4-.6.4-.98s-.13-.71-.4-.95c-.26-.25-.61-.37-1.05-.37-.29,0-.57.07-.84.22-.27.15-.5.33-.69.56v.12c0,.54.15.97.45,1.31.3.34.67.5,1.1.5.41,0,.75-.14,1.02-.41Z"/>
</svg>