<?xml version="1.0" encoding="UTF-8"?>
<svg id="Capa_1" data-name="Capa 1" xmlns="http://www.w3.org/2000/svg" viewBox="0 0 228.77 156.26">
  <defs>
    <style>
      .cls-1 {
        fill: #fff;
      }
    </style>
  </defs>
  <path class="cls-1" d="M218.25,139.05c-.14,0-.27-.03-.41-.09L8.54,45.68c-.5-.22-.73-.82-.51-1.32.22-.5.81-.73,1.32-.51l209.31,93.28c.5.22.73.82.51,1.32-.17.37-.53.59-.91.59Z"/>
  <path class="cls-1" d="M220.66,103.95s-.04,0-.05,0c-5.12-.27-11.27-.39-17.77-.51-26.18-.49-62.04-1.15-91.57-12.75C74.95,76.43,40.47,18.13,40.13,17.55c-.28-.48-.12-1.09.36-1.37.48-.28,1.09-.12,1.37.36.34.58,34.47,58.29,70.15,72.3,29.2,11.47,64.85,12.13,90.88,12.61,6.52.12,12.68.24,17.84.51.55.03.97.5.95,1.05-.03.53-.47.95-1,.95Z"/>
  <path class="cls-1" d="M170.91,149.4c-.32,0-.63-.15-.83-.44-.35-.52-35.68-51.87-78.41-64.09-21.72-6.21-56.81-8.32-72.42-1.4-.51.22-1.1,0-1.32-.51-.22-.5,0-1.1.51-1.32,16.01-7.09,51.73-5,73.78,1.31,43.43,12.42,79.16,64.37,79.51,64.89.31.46.19,1.08-.26,1.39-.17.12-.37.17-.56.17Z"/>
</svg>