<?xml version="1.0" encoding="UTF-8"?>
<svg id="Capa_1" data-name="Capa 1" xmlns="http://www.w3.org/2000/svg" viewBox="0 0 443 216">
  <defs>
    <style>
      .cls-1 {
        fill: none;
        stroke: #fff;
        stroke-linecap: round;
        stroke-miterlimit: 1;
        stroke-width: 2px;
      }

      .cls-2 {
        fill: #00b0c0;
      }
    </style>
  </defs>
  <g>
    <path class="cls-2" d="M194.79,95.65c.65.59,1.37.89,2.18.89.45,0,.84-.05,1.19-.15s.71-.31,1.1-.64.72-.76,1-1.32.55-1.33.8-2.31c.26-.98.47-2.14.65-3.48l3.65-29.58h12.38l-3.61,29.45c-.4,3.32-1.01,6.19-1.82,8.6-.81,2.41-1.9,4.47-3.25,6.19s-3.01,3-4.99,3.85c-1.97.85-4.28,1.27-6.91,1.27-2.47,0-4.79-.58-6.93-1.76-2.14-1.17-3.79-2.87-4.95-5.1l7.96-8.27c.38.98.89,1.77,1.54,2.36Z"/>
    <path class="cls-2" d="M251.38,59.78c2.46.93,4.55,2.26,6.29,4s3.09,3.9,4.05,6.49c.96,2.59,1.44,5.48,1.44,8.67s-.37,6.36-1.1,9.3c-.74,2.95-1.84,5.64-3.3,8.1-1.46,2.45-3.22,4.58-5.27,6.38s-4.47,3.2-7.26,4.2-5.8,1.51-9.04,1.51c-1.98,0-3.86-.21-5.62-.62-1.76-.41-3.38-1.02-4.85-1.82-1.47-.8-2.79-1.8-3.96-3-1.17-1.19-2.16-2.55-2.98-4.07-.81-1.52-1.43-3.23-1.86-5.14s-.64-3.95-.64-6.14c0-2.57.27-5.08.82-7.55.55-2.46,1.33-4.78,2.36-6.94,1.03-2.16,2.31-4.15,3.85-5.96s3.25-3.36,5.14-4.67,4.01-2.32,6.38-3.04c2.36-.73,4.84-1.09,7.43-1.09,2.97,0,5.68.46,8.13,1.39ZM244.42,94.58c1.85-1.48,3.29-3.51,4.3-6.09,1.02-2.58,1.52-5.47,1.52-8.68s-.75-5.71-2.26-7.34-3.46-2.46-5.87-2.46c-2.19,0-4.21.79-6.06,2.36-1.85,1.57-3.29,3.64-4.32,6.21-1.03,2.57-1.54,5.3-1.54,8.2,0,1.7.21,3.2.62,4.5.41,1.31.99,2.35,1.72,3.15s1.57,1.39,2.51,1.79c.94.4,1.96.6,3.08.6,2.34,0,4.44-.74,6.29-2.23Z"/>
    <path class="cls-2" d="M292.37,107.75h-29.38l5.96-48.69h12.52l-4.62,37.64h16.87l-1.34,11.04Z"/>
    <path class="cls-2" d="M322.86,99.55h-13.02l-3.18,8.2h-13.08l21.82-48.69h11.65l9.87,48.69h-12.88l-1.17-8.2ZM321.35,89.08l-1.94-13.75h-.13l-5.36,13.75h7.43Z"/>
    <path class="cls-2" d="M363.08,70.14l-4.62,37.61h-12.38l4.62-37.61h-10.84l1.34-11.08h34.07l-1.34,11.08h-10.84Z"/>
    <path class="cls-2" d="M402,107.75h-30.58l5.96-48.69h29.31l-1.34,11.08h-17.27l-1,8.1h13.38l-1.3,10.81h-13.42l-.94,7.66h18.54l-1.34,11.04Z"/>
  </g>
  <line class="cls-1" x1="42.24" y1="78.29" x2="251.54" y2="171.57"/>
  <path class="cls-1" d="M74.28,50.56s34.22,58.42,70.65,72.73c36.82,14.46,83.64,11.83,109.03,13.19"/>
  <path class="cls-1" d="M204.2,181.92s-35.37-52.02-78.96-64.49c-21.46-6.14-56.96-8.5-73.1-1.35"/>
</svg>