<?xml version="1.0" encoding="UTF-8"?>
<svg id="Capa_1" data-name="Capa 1" xmlns="http://www.w3.org/2000/svg" viewBox="0 0 66.38 29.96">
  <defs>
    <style>
      .cls-1 {
        fill: #c9a84c;
      }
    </style>
  </defs>
  <path class="cls-1" d="M18,14.82l4.94,11.31h-6.56l-2.62-6.82h-.06l-4.32,6.82H2.67l7.81-11.51L5.81,3.47h6.45l2.46,6.59h.11l3.93-6.59h6.73l-7.48,11.36Z"/>
  <path class="cls-1" d="M37.36,14.82l4.94,11.31h-6.56l-2.62-6.82h-.06l-4.32,6.82h-6.71l7.81-11.51-4.67-11.16h6.45l2.46,6.59h.11l3.93-6.59h6.73l-7.48,11.36Z"/>
  <path class="cls-1" d="M63.86,3.47l-10.17,22.67h-4.99l-4.66-22.67h6.22l1.92,13.74h.06l5.3-13.74h6.33Z"/>
</svg>